<svg width="20" height="20" viewBox="0 0 20 20" fill="none" xmlns="http://www.w3.org/2000/svg">
<path d="M11.7666 11.7667C11.5377 12.0124 11.2617 12.2094 10.955 12.346C10.6484 12.4826 10.3173 12.5561 9.98166 12.562C9.64598 12.568 9.31255 12.5062 9.00126 12.3805C8.68997 12.2547 8.40719 12.0676 8.16979 11.8302C7.93239 11.5928 7.74525 11.31 7.61951 10.9987C7.49377 10.6874 7.43202 10.354 7.43795 10.0183C7.44387 9.68264 7.51734 9.3516 7.65398 9.04493C7.79062 8.73827 7.98763 8.46227 8.23325 8.2334M14.9499 14.9501C13.5254 16.0359 11.7908 16.6374 9.99992 16.6667C4.16658 16.6667 0.833252 10.0001 0.833252 10.0001C1.86983 8.06831 3.30753 6.38057 5.04992 5.05006L14.9499 14.9501ZM8.24992 3.53339C8.82353 3.39913 9.4108 3.33201 9.99992 3.3334C15.8333 3.3334 19.1666 10.0001 19.1666 10.0001C18.6607 10.9464 18.0575 11.8373 17.3666 12.6584L8.24992 3.53339Z" stroke="#C3C1C1" stroke-width="1.5" stroke-linecap="round" stroke-linejoin="round"/>
</svg>